<?xml version="1.0" encoding="UTF-8" standalone="no"?>
<!-- Created with Inkscape (http://www.inkscape.org/) -->

<svg
   xmlns:dc="http://purl.org/dc/elements/1.1/"
   xmlns:cc="http://creativecommons.org/ns#"
   xmlns:rdf="http://www.w3.org/1999/02/22-rdf-syntax-ns#"
   xmlns:svg="http://www.w3.org/2000/svg"
   xmlns="http://www.w3.org/2000/svg"
   xmlns:sodipodi="http://sodipodi.sourceforge.net/DTD/sodipodi-0.dtd"
   xmlns:inkscape="http://www.inkscape.org/namespaces/inkscape"
   width="175.10892mm"
   height="62.88081mm"
   viewBox="0 0 175.10892 62.88081"
   version="1.1"
   id="svg8"
   inkscape:version="0.92.4 (5da689c313, 2019-01-14)"
   sodipodi:docname="images.svg">
  <defs
     id="defs2" />
  <sodipodi:namedview
     id="base"
     pagecolor="#ffffff"
     bordercolor="#666666"
     borderopacity="1.0"
     inkscape:pageopacity="0.0"
     inkscape:pageshadow="2"
     inkscape:zoom="1.4142136"
     inkscape:cx="-198.32052"
     inkscape:cy="101.22239"
     inkscape:document-units="mm"
     inkscape:current-layer="layer1"
     showgrid="false"
     inkscape:window-width="3440"
     inkscape:window-height="1377"
     inkscape:window-x="1912"
     inkscape:window-y="-8"
     inkscape:window-maximized="1" />
  <metadata
     id="metadata5">
    <rdf:RDF>
      <cc:Work
         rdf:about="">
        <dc:format>image/svg+xml</dc:format>
        <dc:type
           rdf:resource="http://purl.org/dc/dcmitype/StillImage" />
        <dc:title></dc:title>
      </cc:Work>
    </rdf:RDF>
  </metadata>
  <g
     inkscape:label="Layer 1"
     inkscape:groupmode="layer"
     id="layer1"
     transform="translate(-8.8860957,-66.945412)">
    <path
       style="fill:#0d2243;stroke:none;stroke-width:0.26458332px;stroke-linecap:butt;stroke-linejoin:miter;stroke-opacity:1;fill-opacity:1"
       d="m 10.698408,66.945412 c 1.088086,0 79.800722,10.368233 79.800722,10.368233 L 180.50587,67.051288 163.14296,98.652068 183.99502,129.82622 96.501883,117.3811 8.8860957,126.3304 28.531142,95.553128 Z"
       id="path815"
       inkscape:connector-curvature="0"
       sodipodi:nodetypes="ccccccccc" />
    <path
       style="fill:#04132d;fill-opacity:1;stroke:none;stroke-width:0.26458332px;stroke-linecap:butt;stroke-linejoin:miter;stroke-opacity:1"
       d="m 10.698413,66.945418 c 1.08808,0 79.800717,10.368233 79.800717,10.368233 L 96.501883,117.3811 8.886093,126.3304 28.53114,95.55313 Z"
       id="path815-8"
       inkscape:connector-curvature="0"
       sodipodi:nodetypes="cccccc" />
    <path
       style="fill:#6ac8d5;stroke:none;stroke-width:0.20719732px;stroke-linecap:butt;stroke-linejoin:miter;stroke-opacity:1;fill-opacity:1"
       d="m 34.165419,75.754562 c -1.14901,1.58929 -2.94129,1.61267 -4.67227,1.78526 1.771018,0.73393 3.465193,1.51724 4.065279,3.00391 0.816457,-0.93044 1.932973,-1.61383 4.062185,-1.46336 -2.360203,-0.86617 -3.029195,-2.07162 -3.455194,-3.32581 z"
       id="path817"
       inkscape:connector-curvature="0"
       sodipodi:nodetypes="ccccc" />
    <path
       style="opacity:1;fill:#dfb537;fill-opacity:1;stroke:none;stroke-width:2.81196237;stroke-linecap:round;stroke-linejoin:round;stroke-miterlimit:4;stroke-dasharray:none;stroke-opacity:1;paint-order:markers fill stroke"
       d="m 38.317501,121.19616 -9.132749,-4.32931 0.955259,6.65656 -1.685605,-6.59348 -8.380892,5.79128 7.779276,-6.01709 -10.394691,0.93251 10.274221,-1.31491 -8.42268,-3.91631 8.853927,3.6013 -0.676432,-7.90874 1.406779,7.84566 7.172653,-5.58744 -6.571035,5.81325 10.58057,-0.96164 -10.460102,1.34405 z"
       id="path819"
       inkscape:connector-curvature="0"
       sodipodi:nodetypes="ccccccccccccccccc" />
    <path
       style="opacity:1;fill:#dfb537;fill-opacity:1;stroke:none;stroke-width:3.22388387;stroke-linecap:round;stroke-linejoin:round;stroke-miterlimit:4;stroke-dasharray:none;stroke-opacity:1;paint-order:markers fill stroke"
       d="m 155.81499,89.086399 4.37663,-9.797183 -10.06455,5.198972 9.82202,-5.660599 -11.22984,-2.40737 11.34186,1.892913 -4.26919,-7.190465 4.67015,6.924535 3.79395,-8.971933 -3.33895,9.110316 12.04761,-5.812175 -11.80509,6.273809 10.60307,1.636058 -10.71508,-1.121606 4.36222,7.310593 -4.76317,-7.044675 z"
       id="path819-6"
       inkscape:connector-curvature="0"
       sodipodi:nodetypes="ccccccccccccccccc" />
    <path
       style="fill:#6ac8d5;stroke:none;stroke-width:0.21057236px;stroke-linecap:butt;stroke-linejoin:miter;stroke-opacity:1;fill-opacity:1"
       d="m 156.78701,116.43493 c -0.35459,1.49199 -2.19357,2.48716 -4.06231,3.01386 1.79994,0.19748 2.8375,0.48174 4.69704,1.92888 0.6812,-1.10345 1.63238,-2.06556 3.55453,-2.53165 -1.82376,-0.35072 -2.91776,-1.3562 -4.18926,-2.41109 z"
       id="path817-1"
       inkscape:connector-curvature="0"
       sodipodi:nodetypes="ccccc" />
    <path
       inkscape:connector-curvature="0"
       id="path862"
       style="font-style:normal;font-variant:normal;font-weight:normal;font-stretch:normal;font-size:22.90418816px;line-height:1.25;font-family:Broadway;-inkscape-font-specification:Broadway;text-align:center;letter-spacing:0px;word-spacing:0px;text-anchor:middle;fill:#ec4931;fill-opacity:1;stroke:none;stroke-width:1.62152398"
       d="m 59.873869,82.032016 -0.07339,3.422212 -0.04403,3.247268 0.04403,7.522306 h -8.953531 l 0.08807,-8.714064 -0.04403,-2.962999 -0.04403,-2.514723 -1.937486,0.0328 -2.774127,0.04373 -0.410982,0.01093 q -0.70454,0 -0.70454,-0.393609 0,-0.349875 0.410983,-0.39361 0.117424,-0.02187 0.719217,-0.0328 h 18.00981 q 0.939387,0.01093 1.115523,0.0656 0.293558,0.08747 0.293558,0.371741 0,0.371742 -0.748574,0.371742 L 63.543361,82.07574 60.16744,82.032 Z" />
    <path
       inkscape:connector-curvature="0"
       id="path864"
       style="font-style:normal;font-variant:normal;font-weight:normal;font-stretch:normal;font-size:22.90418816px;line-height:1.25;font-family:Broadway;-inkscape-font-specification:Broadway;text-align:center;letter-spacing:0px;word-spacing:0px;text-anchor:middle;fill:#6ac8d5;fill-opacity:1;stroke:none;stroke-width:1.62152398"
       d="m 79.630349,93.752807 q 1.40908,0.721622 3.038329,1.235497 1.643928,0.502945 3.5227,0.787222 0.455017,0.0656 0.455017,0.328007 0,0.360807 -0.675185,0.360807 -1.541182,0 -4.329986,-1.00589 -2.319111,-0.841882 -5.313407,-2.602195 v 0.448276 l 0.01467,1.858712 v 1.060559 h -8.938852 v -0.492015 l 0.02936,-3.564345 0.04403,-4.264098 -0.02936,-6.603877 h 5.900525 q 3.963038,0 5.98859,0.164004 2.025553,0.164003 3.449311,0.61228 2.319112,0.721616 3.669481,2.372586 1.247622,1.530696 1.247622,3.21447 0,1.793112 -1.394402,3.378476 -2.245722,2.547525 -6.678453,2.711524 z m -1.394402,-0.677874 0.70454,0.01095 q 3.023651,0 5.107915,-1.257368 1.321013,-0.787212 2.025554,-1.96804 0.660506,-1.08243 0.660506,-2.208589 0,-1.913371 -1.673282,-3.422205 -1.27698,-1.169892 -3.199788,-1.650969 -1.922807,-0.481079 -5.416152,-0.513879 l -0.132101,7.325496 v 1.978981 l 0.01467,0.513875 q 0.895353,0.645083 1.908129,1.191758 z" />
    <path
       inkscape:connector-curvature="0"
       id="path866"
       style="font-style:normal;font-variant:normal;font-weight:normal;font-stretch:normal;font-size:22.90418816px;line-height:1.25;font-family:Broadway;-inkscape-font-specification:Broadway;text-align:center;letter-spacing:0px;word-spacing:0px;text-anchor:middle;fill:#dfb537;fill-opacity:1;stroke:none;stroke-width:1.62152398"
       d="m 99.401501,81.299467 v 0.76535 l -0.07337,5.991596 0.05867,8.167389 h -8.968205 l 0.102751,-8.932732 -0.102751,-5.455858 0.01467,-0.535745 z" />
    <path
       inkscape:connector-curvature="0"
       id="path868"
       style="font-style:normal;font-variant:normal;font-weight:normal;font-stretch:normal;font-size:22.90418816px;line-height:1.25;font-family:Broadway;-inkscape-font-specification:Broadway;text-align:center;letter-spacing:0px;word-spacing:0px;text-anchor:middle;fill:#ec4931;fill-opacity:1;stroke:none;stroke-width:1.62152398"
       d="m 111.39337,81.594674 -0.0734,7.751906 0.0734,6.582015 q 0.76325,0.07655 1.26229,0.07655 1.43844,0 2.95028,-0.382676 1.51181,-0.382677 2.67137,-1.03869 0.74857,-0.426406 1.54118,-1.137089 0.80728,-0.710683 1.29167,-1.388566 0.27888,-0.393606 0.60179,-0.393606 0.48437,0 0.48437,0.306137 0,0.328007 -0.73391,1.115229 -0.71921,0.776282 -1.5852,1.399496 -1.87878,1.344827 -4.41805,1.869641 -1.52652,0.317067 -2.93559,0.317067 -2.05492,0 -4.1245,-0.656013 -3.31721,-1.03869 -5.0492,-3.291008 -1.43843,-1.869641 -1.43843,-3.96889 0,-2.142979 1.49714,-4.04542 1.59989,-2.022711 4.5208,-3.094202 2.1283,-0.76535 4.59419,-0.76535 4.22724,0 7.30961,2.132048 1.46778,1.016823 1.46778,1.465099 0,0.120269 -0.14677,0.218672 -0.14679,0.0984 -0.32291,0.0984 -0.29357,0 -0.70455,-0.42641 -1.2623,-1.301096 -3.33189,-2.055513 -2.06959,-0.76535 -4.37402,-0.76535 -0.54308,0 -1.02745,0.07654 z" />
    <path
       inkscape:connector-curvature="0"
       id="path870"
       style="font-style:normal;font-variant:normal;font-weight:normal;font-stretch:normal;font-size:22.90418816px;line-height:1.25;font-family:Broadway;-inkscape-font-specification:Broadway;text-align:center;letter-spacing:0px;word-spacing:0px;text-anchor:middle;fill:#6ac8d5;fill-opacity:1;stroke:none;stroke-width:1.62152398"
       d="m 136.55132,84.437404 2.18701,3.301942 q 1.89346,2.842732 3.30253,4.832642 1.40908,1.98991 2.09895,2.777123 0.42565,0.502945 0.42565,0.666953 0,0.415476 -0.76325,0.415476 -0.33759,0 -0.49904,-0.164008 -0.14679,-0.153069 -0.76325,-1.104289 l -0.91004,-1.410427 -1.43843,-2.219518 -1.3357,-2.055519 -0.98342,-1.497896 -2.12829,-3.225408 -2.68606,1.202698 -0.0147,1.618165 v 1.082429 l 0.0734,7.019351 0.0147,0.546684 h -8.98289 l 0.0881,-9.337278 -0.0294,-2.656858 -0.0587,-2.328852 v -0.601347 h 8.98289 l -0.0587,1.749372 -0.0147,2.121112 2.50993,-1.115223 q 2.12829,-0.940287 3.7869,-1.771239 1.67328,-0.820018 2.14296,-1.005889 0.4697,-0.185871 0.88069,-0.185871 0.77792,0 0.77792,0.360808 0,0.185871 -0.22016,0.317074 -0.2055,0.120269 -0.98342,0.393609 -0.92471,0.328007 -4.09514,1.705638 z" />
    <path
       inkscape:connector-curvature="0"
       id="path872"
       style="font-style:normal;font-variant:normal;font-weight:normal;font-stretch:normal;font-size:22.90418816px;line-height:1.25;font-family:Broadway;-inkscape-font-specification:Broadway;text-align:center;letter-spacing:0px;word-spacing:0px;text-anchor:middle;fill:#dfb537;fill-opacity:1;stroke:none;stroke-width:1.62152398"
       d="m 51.859725,100.21053 -0.07339,3.4222 -0.04403,3.24727 0.04403,7.52231 h -8.953529 l 0.08807,-8.71407 -0.04403,-2.963 -0.04403,-2.51471 -1.937485,0.0327 -2.774127,0.0437 -0.410982,0.0109 q -0.70454,0 -0.70454,-0.393609 0,-0.349876 0.410982,-0.393606 0.117424,-0.0219 0.719218,-0.03285 h 18.009807 q 0.939387,0.01095 1.115522,0.0656 0.293559,0.0875 0.293559,0.371736 0,0.371749 -0.748574,0.371749 l -1.27698,-0.0329 -3.37592,-0.0437 z" />
    <path
       inkscape:connector-curvature="0"
       id="path874"
       style="font-style:normal;font-variant:normal;font-weight:normal;font-stretch:normal;font-size:22.90418816px;line-height:1.25;font-family:Broadway;-inkscape-font-specification:Broadway;text-align:center;letter-spacing:0px;word-spacing:0px;text-anchor:middle;fill:#ec4931;fill-opacity:1;stroke:none;stroke-width:1.62152398"
       d="m 71.616205,111.93132 q 1.409079,0.72161 3.03833,1.23549 1.643926,0.50294 3.5227,0.78722 0.455015,0.0656 0.455015,0.32801 0,0.3608 -0.675184,0.3608 -1.541181,0 -4.329986,-1.00589 -2.319112,-0.84188 -5.313408,-2.60219 v 0.44828 l 0.01467,1.85871 v 1.06056 h -8.938853 v -0.49202 l 0.02936,-3.56434 0.04403,-4.2641 -0.02936,-6.603876 h 5.900523 q 3.963038,0 5.988592,0.163998 2.025553,0.164009 3.449311,0.612288 2.31911,0.72161 3.669479,2.37258 1.247624,1.5307 1.247624,3.21447 0,1.79311 -1.394402,3.37848 -2.245722,2.54752 -6.678454,2.71153 z m -1.394403,-0.67788 0.70454,0.011 q 3.023652,0 5.107917,-1.25737 1.321013,-0.78721 2.025553,-1.96804 0.660505,-1.08242 0.660505,-2.20859 0,-1.91337 -1.673282,-3.42221 -1.276979,-1.16988 -3.199786,-1.65097 -1.922808,-0.48107 -5.416153,-0.51387 l -0.132101,7.32549 v 1.97898 l 0.01467,0.51388 q 0.895354,0.64508 1.90813,1.19176 z" />
    <path
       inkscape:connector-curvature="0"
       id="path876"
       style="font-style:normal;font-variant:normal;font-weight:normal;font-stretch:normal;font-size:22.90418816px;line-height:1.25;font-family:Broadway;-inkscape-font-specification:Broadway;text-align:center;letter-spacing:0px;word-spacing:0px;text-anchor:middle;fill:#6ac8d5;fill-opacity:1;stroke:none;stroke-width:1.62152398"
       d="m 91.38736,99.477974 v 0.765356 l -0.07339,5.99159 0.05872,8.16739 h -8.968209 l 0.102751,-8.93274 -0.102751,-5.45585 0.01467,-0.535746 z" />
    <path
       inkscape:connector-curvature="0"
       id="path878"
       style="font-style:normal;font-variant:normal;font-weight:normal;font-stretch:normal;font-size:22.90418816px;line-height:1.25;font-family:Broadway;-inkscape-font-specification:Broadway;text-align:center;letter-spacing:0px;word-spacing:0px;text-anchor:middle;fill:#dfb537;fill-opacity:1;stroke:none;stroke-width:1.62152398"
       d="m 109.74944,108.2139 2.62734,-3.66275 q 1.95217,-2.68966 3.11172,-4.48276 0.30824,-0.481087 0.48438,-0.634155 0.19082,-0.163999 0.45501,-0.163999 0.24952,0 0.44034,0.131199 0.19082,0.120269 0.19082,0.295207 0,0.185868 -0.30824,0.590418 -0.0734,0.0984 -0.14677,0.18586 -0.14679,0.17494 -0.38163,0.49202 L 105.36074,115.55033 92.825801,99.477974 h 10.289219 z" />
    <path
       inkscape:connector-curvature="0"
       id="path880"
       style="font-style:normal;font-variant:normal;font-weight:normal;font-stretch:normal;font-size:22.90418816px;line-height:1.25;font-family:Broadway;-inkscape-font-specification:Broadway;text-align:center;letter-spacing:0px;word-spacing:0px;text-anchor:middle;fill:#ec4931;fill-opacity:1;stroke:none;stroke-width:1.62152398"
       d="m 127.3189,99.477974 v 0.765356 l -0.0734,5.99159 0.0587,8.16739 h -8.96819 l 0.10277,-8.93274 -0.10277,-5.45585 0.0147,-0.535746 z" />
    <path
       inkscape:connector-curvature="0"
       id="path882"
       style="font-style:normal;font-variant:normal;font-weight:normal;font-stretch:normal;font-size:22.90418816px;line-height:1.25;font-family:Broadway;-inkscape-font-specification:Broadway;text-align:center;letter-spacing:0px;word-spacing:0px;text-anchor:middle;fill:#6ac8d5;fill-opacity:1;stroke:none;stroke-width:1.62152398"
       d="m 141.13083,98.581413 11.74234,15.820897 h -10.1718 l -1.3944,-2.00085 h -4.93178 l -4.34466,-0.0109 -0.73391,-0.011 -0.96874,1.33389 q -0.42565,0.60136 -0.60179,0.74349 -0.16146,0.15308 -0.41098,0.15308 -0.49905,0 -0.49905,-0.32802 0,-0.14213 0.27888,-0.52481 0.29356,-0.3936 2.01088,-2.55845 l 8.88014,-11.14132 z m -4.56483,7.161497 -2.56864,3.22541 -2.0549,2.65685 4.40337,0.0437 4.41805,-0.0327 z" />
  </g>
</svg>
